<svg xmlns="http://www.w3.org/2000/svg" width="35" height="35"><defs><clipPath clipPathUnits="userSpaceOnUse" id="cp1"><path d="M-565-531h1920V549H-565z"/></clipPath></defs><style/><g id="login" clip-path="url(#cp1)"><g id="Group 245"><g id="google (1)"><path id="Path 126" d="M8.89 17.83c0-1.67.46-3.23 1.26-4.57V7.59H4.47A16.703 16.703 0 001 17.83c0 3.75 1.22 7.32 3.47 10.24h5.68V22.4a8.88 8.88 0 01-1.26-4.57z" fill="#fbbd00"/><path id="Path 127" d="M17.83 26.77l-3.94 3.95 3.94 3.94c3.75 0 7.32-1.22 10.24-3.47v-5.67h-5.66c-1.35.8-2.92 1.25-4.58 1.25z" fill="#0f9d58"/><path id="Path 128" d="M10.15 22.4l-5.68 5.67c.45.58.93 1.14 1.46 1.66 3.18 3.18 7.41 4.93 11.9 4.93v-7.89a8.93 8.93 0 01-7.68-4.37z" fill="#31aa52"/><path id="Path 129" d="M34.66 17.83c0-1.02-.09-2.05-.27-3.05l-.15-.81H17.83v7.89h7.99a8.928 8.928 0 01-3.41 3.66l5.66 5.67c.58-.45 1.14-.93 1.66-1.46 3.18-3.18 4.93-7.4 4.93-11.9z" fill="#3c79e6"/><path id="Path 130" d="M24.15 11.51l.7.7 5.58-5.58-.7-.7C26.55 2.75 22.33 1 17.83 1l-3.94 3.94 3.94 3.95c2.39 0 4.64.93 6.32 2.62z" fill="#cf2d48"/><path id="Path 131" d="M17.83 8.89V1c-4.49 0-8.72 1.75-11.9 4.93-.53.53-1.01 1.08-1.46 1.66l5.68 5.67c1.56-2.61 4.42-4.37 7.68-4.37z" fill="#eb4132"/></g></g></g></svg>