<svg width="490" height="120" fill="none" xmlns="http://www.w3.org/2000/svg"><path d="M109.661 119.404v-11.78H76.82c-1.699-4.823-1.866-17.724-.362-23.897h50.619v-70.56H93.414V.518h102.7v12.504h-33.412c-1.392 4.558-1.879 61.276-.584 70.27h13.002L211.525.313h46.61l36.642 83.751h-35.445c-1.796-4.63-3.745-9.646-5.791-14.89h-38.647l-4.942 14.468h26.02c1.74 3.846 3.466 7.488 5.026 11.165 3.466 8.199 6.849 16.41 10.274 24.621h-29.166c-1.531-3.472-3.077-6.945-4.928-11.104-1.782 4.147-3.286 7.62-4.789 11.104h-29.152c5.053-11.394 10.107-22.8 15.313-34.556h-19.657v22.704h-34.526v11.852l-34.706-.024zm112.946-71.777h23.597c-3.87-10.852-7.573-21.282-11.276-31.7l-1.17.17c-3.661 10.333-7.309 20.666-11.151 31.53zm166.099 71.777V86.03c.13-.764.345-1.515.641-2.243h16.163V.386h34.317V23.44l1.225.397C449.001 15.952 456.95 8.078 465.08 0H490v17.905l-9.842 7.391c3.563 5.125 6.71 9.646 9.842 14.108v54.909a22.992 22.992 0 00-3.592 2.411c-7.643 7.524-15.202 15.096-22.789 22.656l-74.913.024zm34.401-.385l35.653-35.63h21.314a59824.157 59824.157 0 01-22.734-37.98l-17.82 16.168v23.054h-16.413v34.388z" fill="#fff"/><path d="M273.477 119.404c3.954-22.028 19.727-33.591 45.329-36.98-3.578-2.074-6.669-3.617-9.384-5.462-5.191-3.509-9.531-7.872-12.771-12.838-3.24-4.966-5.315-10.437-6.106-16.1-1.629-10.67-1.56-21.413 2.492-31.843 2.28-6.139 6.374-11.654 11.875-16h78.824c5.499 4.232 8.214 8.09 11.36 16.362h-32.66c-3.48-2.81-7.211-5.57-12.599-6.342-10.511-1.495-20.326 2.917-23.583 11.66-3.886 10.303-3.759 21.427.362 31.662 4.496 11.418 24.878 14.059 33.843 4.714 1.156-1.206 2.102-2.592 3.341-4.148h32.619c-5.485 18.641-18.6 29.372-41.027 31.482 4.9 3.87 9.828 7.235 13.921 11.13 4.163 4.1 7.111 9.016 8.59 14.324h-32.187c-16.01-11.696-33.036-7.922-37.588 8.379h-34.651zM0 119.404v-34.81l10.845-2.061L.39 76.106V52.703h20.882c.474 1.085.92 1.977 1.24 2.906 3.201 9.224 11.499 12.31 21.41 11.358a17.306 17.306 0 004.024-.832c4.316-1.531 7.42-3.967 7.685-8.308.264-4.34-2.464-6.945-6.46-8.38-4.858-1.748-10.079-2.688-15.09-4.135-8.062-2.327-16.206-4.51-24.044-7.295-3.703-1.314-6.78-3.919-9.745-5.655V.386h78.184c3.37 3.364 4.942 7.584 6.21 12.395h-32.87c-3.591-6.029-10.12-7.693-17.82-6.897a15.388 15.388 0 00-5.763 1.736c-4.733 2.677-4.538 7.862.446 10.165a45.557 45.557 0 008.506 2.411c8.659 2.062 17.346 4.027 26.005 6.029 1.778.422 3.51.975 5.18 1.652 11.053 4.497 19.197 11.02 20.394 22.21 1.309 12.177-4.093 21.703-15.648 28.696-6.766 4.076-14.534 5.812-23.318 6.427 4.176 3.303 8.353 5.968 11.624 9.26 3.452 3.585 5.482 8.036 5.792 12.696h-32.48c-3.884-6.028-10.33-7.825-18.098-6.981-1.6.17-3.154.578-4.594 1.206-1.278.482-2.36 1.286-3.105 2.307-.744 1.021-1.118 2.213-1.071 3.42-.074 1.214.343 2.413 1.179 3.39.836.977 2.038 1.671 3.4 1.963 6.628 1.689 13.366 3.039 20.034 4.643 2.631.627 5.165 1.543 7.74 2.327L0 119.404z" fill="#fff"/></svg>