<svg xmlns="http://www.w3.org/2000/svg" width="46" height="46"><defs><clipPath clipPathUnits="userSpaceOnUse" id="cp1"><path d="M-939-210H981V870H-939z"/></clipPath></defs><style/><g id="profile" clip-path="url(#cp1)"><g id="Group 252"><g id="Group 235" fill="#007bff"><path id="Ellipse 15" d="M23 46C10.28 46 0 35.72 0 23S10.28 0 23 0s23 10.28 23 23-10.28 23-23 23z" opacity=".063"/><path id="30-user" fill-rule="evenodd" d="M23.13 39.26C14.22 39.26 7 32.04 7 23.13S14.22 7 23.13 7s16.13 7.22 16.13 16.13-7.22 16.13-16.13 16.13zm8.93-4.61c-.12-.18-.27-.4-.39-.57-.22-.3-.43-.61-.62-.91-.01-.01-1.06-1.42-4.85-1.59-1.32 0-2.28-.99-2.28-2.36l-.02-.72v-.76l.76-.77c.57-.26 1.28-.7 1.84-1.13l.11-.07c.44-.28 1.07-.88 1.13-1.11l.02-.29c.29-1.48.74-4.16.74-5.08 0-3.62-1.75-5.38-5.37-5.38-3.67 0-5.38 1.71-5.38 5.38 0 .94.46 3.62.74 5.08l.03.27c.05.24.61.81 1.11 1.12l.08.05c.6.42 1.33.89 1.88 1.16l.77.77v.76l-.03.72c0 1.36-.95 2.35-2.21 2.35-3.81.16-4.91 1.6-4.91 1.6-.2.3-.41.61-.62.91-.12.17-.28.39-.4.57 2.47 1.92 5.57 3.07 8.94 3.07 3.37 0 6.46-1.15 8.93-3.07zM23.13 8.54c-8.06 0-14.59 6.53-14.59 14.59 0 4.13 1.72 7.86 4.49 10.52.29-.44.61-.87.88-1.31 0 0 1.28-2.1 6.15-2.3.49 0 .74-.32.74-.82v-.72c0-.1-.02-.19-.02-.28-.56-.26-1.2-.63-1.95-1.15 0 0-1.85-1.13-1.85-2.41 0 0-.76-3.92-.76-5.37 0-3.57 1.52-6.91 6.91-6.91 5.31 0 6.91 3.34 6.91 6.91 0 1.41-.77 5.37-.77 5.37 0 1.24-1.84 2.41-1.84 2.41-.73.55-1.38.92-1.95 1.19-.01.08-.02.16-.02.24v.72c0 .5.24.82.74.82 4.93.22 6.14 2.3 6.14 2.3.28.44.59.87.89 1.31 2.76-2.66 4.49-6.39 4.49-10.52 0-8.06-6.53-14.59-14.59-14.59z"/></g></g></g></svg>