<svg width="490" height="120" viewBox="0 0 490 120" fill="none" xmlns="http://www.w3.org/2000/svg">
<path d="M109.661 119.404V107.624H76.8196C75.1212 102.801 74.9541 89.8999 76.4576 83.7265H127.077V13.1667H93.4142V0.518432H196.114V13.022H162.702C161.31 17.5797 160.823 74.2976 162.118 83.2924H175.12L211.525 0.313477H258.135L294.777 84.0641H259.332C257.536 79.4341 255.587 74.4182 253.541 69.1732H214.894L209.952 83.6421H235.972C237.712 87.4884 239.438 91.1297 240.998 94.8072C244.464 103.006 247.847 111.217 251.272 119.428H222.106C220.575 115.956 219.029 112.483 217.178 108.324C215.396 112.471 213.892 115.944 212.389 119.428H183.237C188.29 108.034 193.344 96.6279 198.55 84.872H178.893V107.576H144.367V119.428L109.661 119.404ZM222.607 47.6267H246.204C242.334 36.775 238.631 26.3454 234.928 15.9278L233.758 16.0966C230.097 26.4298 226.449 36.763 222.607 47.6267Z" fill="white"/>
<path d="M388.706 119.404C388.706 108.279 388.706 97.1544 388.706 86.0295C388.836 85.2659 389.051 84.5149 389.347 83.7868H405.51V0.385845H439.827V23.4396L441.052 23.8375C449.001 15.9519 456.95 8.07845 465.08 0H490V17.9052L480.158 25.2964C483.721 30.4208 486.868 34.9423 490 39.4035V94.3129C488.714 95.0124 487.511 95.8202 486.408 96.7244C478.765 104.248 471.206 111.82 463.619 119.38L388.706 119.404ZM423.107 119.019L458.76 83.3889H480.074C472.347 70.4875 465.011 58.2372 457.34 45.4081L439.52 61.5771V84.6308H423.107V119.019Z" fill="white"/>
<path d="M273.477 119.404C277.431 97.3755 293.204 85.8125 318.806 82.4244C315.228 80.3505 312.137 78.8072 309.422 76.9624C304.231 73.4532 299.891 69.0903 296.651 64.1243C293.411 59.1584 291.336 53.6871 290.545 48.0247C288.916 37.3539 288.985 26.6107 293.037 16.1811C295.317 10.0424 299.411 4.52667 304.912 0.180908H383.736C389.235 4.41305 391.95 8.27143 395.096 16.5428H362.436C358.956 13.7334 355.225 10.9723 349.837 10.2006C339.326 8.70552 329.511 13.1185 326.254 21.8601C322.368 32.1639 322.495 43.2877 326.616 53.5228C331.112 64.9412 351.494 67.5817 360.459 58.2373C361.615 57.0315 362.561 55.6449 363.8 54.0895H396.419C390.934 72.7303 377.819 83.4613 355.392 85.5714C360.292 89.4418 365.22 92.8058 369.313 96.7003C373.476 100.801 376.424 105.717 377.903 111.025H345.716C329.706 99.3289 312.68 103.103 308.128 119.404H273.477Z" fill="white"/>
<path d="M0 119.404V84.5948L10.8449 82.533L0.389804 76.1064V52.703H21.2723C21.7456 53.7882 22.1911 54.6804 22.5113 55.6088C25.7133 64.8327 34.0106 67.9194 43.9228 66.9669C45.3012 66.8484 46.6546 66.5686 47.9461 66.1349C52.2618 64.6036 55.3663 62.1681 55.6309 57.8274C55.8954 53.4868 53.1667 50.8823 49.1712 49.4475C44.3126 47.6992 39.092 46.7587 34.0802 45.3118C26.0195 42.9848 17.8754 40.8023 10.0375 38.0171C6.33433 36.7028 3.25766 34.0984 0.292353 32.3622V0.385986H78.4763C81.8453 3.75 83.4185 7.97008 84.6853 12.781H51.8163C48.2246 6.75229 41.6953 5.08837 33.9966 5.88415C31.9508 6.08663 29.9824 6.67963 28.2331 7.62042C23.4997 10.2972 23.6946 15.4818 28.6786 17.7848C31.4037 18.8553 34.2561 19.664 37.1847 20.1963C45.8439 22.2581 54.5311 24.2234 63.1903 26.225C64.9675 26.6474 66.7001 27.2001 68.3692 27.8768C79.4229 32.3742 87.5671 38.8973 88.7644 50.0866C90.073 62.2645 84.6714 71.7898 73.1164 78.7831C66.3505 82.8585 58.5823 84.5948 49.7977 85.2097C53.9742 88.5135 58.1507 91.1781 61.4223 94.4698C64.8741 98.0549 66.9044 102.506 67.2137 107.166H34.7345C30.8503 101.138 24.4046 99.341 16.6364 100.185C15.0363 100.355 13.4822 100.763 12.0422 101.391C10.7637 101.873 9.68207 102.677 8.93739 103.698C8.19271 104.719 7.81936 105.911 7.86572 107.118C7.79214 108.332 8.20908 109.531 9.0449 110.508C9.88072 111.485 11.0833 112.179 12.4459 112.471C19.0726 114.16 25.8107 115.51 32.4792 117.114C35.1104 117.741 37.6441 118.657 40.2196 119.441L0 119.404Z" fill="white"/>
</svg>
